<?xml version="1.0" encoding="UTF-8"?>
<svg width="337px" height="336px" viewBox="0 0 337 336" version="1.1" xmlns="http://www.w3.org/2000/svg" xmlns:xlink="http://www.w3.org/1999/xlink">
    <!-- Generator: Sketch 46.2 (44496) - http://www.bohemiancoding.com/sketch -->
    <title>Slice 1</title>
    <desc>Created with Sketch.</desc>
    <defs>
        <polygon id="path-1" points="83.5932295 143.771783 91.2203344 147.942706 93.1320286 151.256646 92.2573907 157.509752 87.2804286 169.511055 80.904752 180.543901 75.1560505 184.314327 60.1752282 185.102207 57.8040212 187.373038 57 191.567668 57.8040212 197.014735 57.8040212 202.764445 60.1752282 213.861351 66.3587265 224.030656 77.6034226 231.148312 94.3557146 235.275352 94.3557146 232.227738 97.0981635 232.227738 98.0126493 235.824649 99.5990024 228.523894 99.5990024 237.006974 101.623683 238.055631 104.449863 227.70928 103.126305 239.058892 107.879312 243.03108 109.021788 241.360996 117.640553 239.058892 147.693495 230.521841 157.582855 231.148312 157.582855 237.006974 152.764276 238.055631 148.419838 238.055631 149.262698 245.536963 147.693495 242.410158 146.321514 246.720297 144.529364 242.410158 143.487263 246.720297 140.308 243.03108 140.308 246.720297 134.36712 243.03108 133.612026 247.678161 131.180291 242.410158 130.544236 239.849799 118.91468 242.410158 115.656729 245.536963 112.910749 249.647862 111.754149 256.059351 113.839863 270.290628 115.656729 269.29796 114.565701 256.767031 117.640553 269.29796 118.91468 265.778727 121.886128 269.29796 126.940264 268.262417 127.860299 264.567652 132.431719 264.567652 133.612026 266.377456 135.186274 272.738 137.28712 272.738 136.603147 263.848875 142.772522 262.833508 143.487263 270.290628 145.481176 270.290628 144.529364 262.833508 149.262698 262.203002 150.501012 270.290628 152.764276 271.195026 151.341855 262.203002 154.836876 262.203002 156.396495 269.29796 158.607806 269.29796 156.396495 261.334417 158.607806 261.334417 158.607806 264.567652 160.16793 264.567652 160.16793 261.334417 168.191497 262.203002 175.139169 262.203002 182.817218 261.334417 182.817218 263.848875 184.976071 263.848875 184.976071 261.334417 188.055462 260.40379 189.13388 261.334417 190.386821 259.87013 218.862994 258.182391 246.007033 253.724462 252.470476 241.360996 246.007033 240.442475 244.262297 238.055631 245.440587 234.528833 255.88681 235.824649 257.081241 233.244114 246.547755 232.227738 245.440587 229.198283 255.256808 231.148312 255.88681 229.798525 251.09446 228.523894 255.256808 226.423048 261.979011 226.96377 271.986402 200.817947 265.200645 194.171405 271.447193 194.854874 273.632275 185.66361 268.987716 184.314327 268.987716 183.380674 259.030765 181.871999 259.030765 179.532065 272.57706 181.871999 273.632275 179.532065 259.643617 176.706894 259.643617 174.408321 271.986402 176.706894 272.57706 174.408321 260.712451 172.513272 271.986402 171.542293 271.447193 168.170851 262.523264 166.968855 262.523264 164.522492 269.661096 165.389563 268.987716 162.702599 261.979011 160.984092 260.712451 158.297128 268.108538 159.059788 268.108538 156.664369 259.030765 155.123413 257.081241 152.176175 266.127236 153.534538 265.200645 151.256646 255.88681 148.849121 255.88681 146.428483 263.913908 147.942706 263.393362 145.114004 255.256808 143.771783 255.256808 141.892371 257.081241 140.737788 255.88681 135.025404 257.61591 135.025404 258.433045 129.680226 252.470476 128.58365 255.256808 125.157228 250.323225 122.390568 254.315589 121.545186 250.323225 118.950023 250.323225 116.64338 254.315589 114.162717 247.71747 110.630875 254.315589 108.332806 247.71747 105.989846 253.282568 104.906889 247.71747 102.873633 253.282568 102.023207 247.19642 99.6953787 251.633669 98.6921176 252.470476 95.6132307 240.056066 93.069013 243.668108 78.3847806 132.431719 60.7729828 130.544236 59 123.263153 65.545661 119.68995 71.5637146 114.565701 75.7462391 109.021788 77.3749622 101.02445 73.4491797 95.5995768 70.2805088 87.2804286 71.5637146 84.6307902 74.2441217 83.5932295 80.1628075 83.5932295 95.6132307 80.904752 99.6953787 79.3032667 103.756846 75.1560505 110.046774 72.2637935 116.64338 70.6668479 121.545186 66.997303 121.545186 65.6863549 128.58365 65.6863549 135.753764 69.3846509 142.790715 74.4917494 145.114004"></polygon>
        <filter x="-1.6%" y="-1.7%" width="103.3%" height="103.4%" filterUnits="objectBoundingBox" id="filter-2">
            <feMorphology radius="2" operator="erode" in="SourceAlpha" result="shadowSpreadInner1"></feMorphology>
            <feGaussianBlur stdDeviation="1" in="shadowSpreadInner1" result="shadowBlurInner1"></feGaussianBlur>
            <feOffset dx="2" dy="2" in="shadowBlurInner1" result="shadowOffsetInner1"></feOffset>
            <feComposite in="shadowOffsetInner1" in2="SourceAlpha" operator="arithmetic" k2="-1" k3="1" result="shadowInnerInner1"></feComposite>
            <feColorMatrix values="0 0 0 0 0   0 0 0 0 0   0 0 0 0 0  0 0 0 1 0" type="matrix" in="shadowInnerInner1"></feColorMatrix>
        </filter>
    </defs>
    <g id="Page-1" stroke="none" stroke-width="1" fill="none" fill-rule="evenodd">
        <g id="Group" transform="translate(1.000000, 1.000000)">
            <path d="M74.0747129,33.7372227 C66.9262754,41.476806 60.715989,46.8397617 55.4438536,49.8260898 C42.7999734,48.7805169 37.4490619,54.3781732 39.3911192,66.6190586 C33.3266661,79.2004388 29.0766661,85.9543451 26.6411192,86.8807773 C14.2986713,89.9439284 10.6456765,97.7176914 15.6821348,110.202066 C13.1678119,121.325764 11.005377,128.534749 9.19483012,131.82902 C-1.78108134,138.615478 -2.9304954,146.370035 5.74658794,155.092691 C5.87809835,171.815999 5.94385356,180.177652 5.94385356,180.177652 C-1.60302144,189.365152 -0.43895894,197.470947 9.43604106,204.495035 C14.2928119,219.188395 16.7211973,226.535074 16.7211973,226.535074 C12.2407286,238.700439 15.6043353,245.656819 26.8120176,247.404215 C36.614752,261.359944 41.5161192,268.337809 41.5161192,268.337809 C41.56039,278.940673 47.2016661,284.780842 58.4399473,285.858316 C71.9314838,296.633056 78.677252,302.020426 78.677252,302.020426 C80.4565489,311.756754 87.599778,315.605061 100.106939,313.565348 C115.342617,319.15454 122.960455,321.949137 122.960455,321.949137 C128.400559,331.604085 135.864426,333.315348 145.352057,327.082926 C162.855312,328.256103 171.606939,328.842691 171.606939,328.842691 C180.037929,336.442301 187.310716,335.591715 193.425299,326.290934 C210.404466,321.762288 218.894049,319.497965 218.894049,319.497965 C229.362799,323.555908 236.423346,320.730387 240.075689,311.021402 L262.311041,297.131754 C274.383307,298.968342 280.005703,293.958902 279.178229,282.103434 L295.086432,264.029215 C307.077968,259.770751 311.460781,253.216064 308.234869,244.365152 L317.412604,222.340738 C329.346197,215.966713 331.855637,207.958575 324.940924,198.316324 L327.543463,173.95109 C337.224453,165.466715 336.863124,157.589436 326.459479,150.319254 L322.690924,126.786051 C329.727382,116.711832 326.86345,109.108642 314.099127,103.97648 L304.062994,84.1854648 C308.17888,70.5728346 302.877122,63.5383294 288.157721,63.0819492 L274.212408,48.0038242 C273.371913,34.8052565 266.06983,29.1278477 252.306158,30.9715977 L234.062018,21.4383945 C229.540533,10.3570143 220.835455,7.08845964 207.946783,11.6327305 L187.815924,7.49796485 C179.477382,-1.92130599 171.377447,-2.46590234 163.516119,5.86417578 L140.192877,7.68058203 C128.877773,0.586180993 121.120611,2.45108985 116.921393,13.2753086 L94.8042051,22.414957 C87.7679245,21.1208563 83.065125,21.1208563 80.6958067,22.414957 C78.3264884,23.7090578 76.1194571,27.4831463 74.0747129,33.7372227 Z" id="outline-copy" stroke="#979797" fill="#000000"></path>
            <ellipse id="cap-copy" stroke="#979797" fill-opacity="0.48658288" fill="#999999" cx="167.175453" cy="163.174805" rx="143.175453" ry="143.174805"></ellipse>
            <g id="south-philly-copy">
                <use fill="#FFFFFF" fill-rule="evenodd" xlink:href="#path-1"></use>
                <use fill="black" fill-opacity="1" filter="url(#filter-2)" xlink:href="#path-1"></use>
                <use stroke="#000000" stroke-width="1" xlink:href="#path-1"></use>
            </g>
            <polygon id="Star" stroke="#979797" fill="#F8E71C" points="204.945966 134.304257 193.854749 140.135255 195.972983 127.785004 187 119.038507 199.400357 117.23663 204.945966 106 210.491574 117.23663 222.891931 119.038507 213.918948 127.785004 216.037182 140.135255"></polygon>
        </g>
    </g>
</svg>